<?xml version="1.0" encoding="UTF-8" standalone="no"?>
<!-- Created with Inkscape (http://www.inkscape.org/) -->

<svg
   width="133.10368"
   height="133.10368"
   viewBox="0 0 35.217016 35.217016"
   version="1.1"
   id="svg31074"
   inkscape:version="1.2.1 (9c6d41e, 2022-07-14)"
   sodipodi:docname="image_upload.svg"
   xml:space="preserve"
   xmlns:inkscape="http://www.inkscape.org/namespaces/inkscape"
   xmlns:sodipodi="http://sodipodi.sourceforge.net/DTD/sodipodi-0.dtd"
   xmlns="http://www.w3.org/2000/svg"
   xmlns:svg="http://www.w3.org/2000/svg"><sodipodi:namedview
     id="namedview31076"
     pagecolor="#ffffff"
     bordercolor="#999999"
     borderopacity="1"
     inkscape:showpageshadow="0"
     inkscape:pageopacity="0"
     inkscape:pagecheckerboard="0"
     inkscape:deskcolor="#d1d1d1"
     inkscape:document-units="mm"
     showgrid="false"
     inkscape:zoom="3.021161"
     inkscape:cx="62.227734"
     inkscape:cy="39.554331"
     inkscape:window-width="1440"
     inkscape:window-height="773"
     inkscape:window-x="0"
     inkscape:window-y="25"
     inkscape:window-maximized="0"
     inkscape:current-layer="g31620" /><defs
     id="defs31071" /><g
     inkscape:label="Ebene 1"
     inkscape:groupmode="layer"
     id="layer1"
     transform="translate(-73.175722,-93.304353)"><rect
       style="fill:none;stroke:#999999;stroke-width:0.3;stroke-linecap:round;stroke-linejoin:round;stroke-dasharray:2, 1;stroke-dashoffset:0"
       id="rect31247"
       width="34.917015"
       height="34.917015"
       x="73.325722"
       y="93.454353" /><g
       id="g31620"><g
         style="fill:#999999;stroke-width:0.265143"
         id="g59529"
         transform="matrix(0.9978909,0,0,0.9978909,82.801102,103.42868)"><path
           fill-rule="evenodd"
           d="M 4.406,1.342 A 5.53,5.53 0 0 1 8,0 c 2.69,0 4.923,2 5.166,4.579 C 14.758,4.804 16,6.137 16,7.773 16,9.569 14.502,11 12.687,11 H 10 a 0.5,0.5 0 0 1 0,-1 h 2.688 C 13.979,10 15,8.988 15,7.773 15,6.557 13.98,5.545 12.687,5.545 h -0.5 v -0.5 C 12.188,2.825 10.328,1 8,1 A 4.53,4.53 0 0 0 5.059,2.1 C 4.302,2.752 3.906,3.538 3.906,4.155 V 4.603 L 3.461,4.652 C 2.064,4.805 1,5.952 1,7.318 1,8.785 2.23,10 3.781,10 H 6 a 0.5,0.5 0 0 1 0,1 H 3.781 C 1.708,11 0,9.366 0,7.318 0,5.555 1.266,4.095 2.942,3.725 3.085,2.862 3.64,2.002 4.406,1.342 Z"
           id="path59517"
           style="stroke-width:0.0703006;fill:#999999" /><path
           fill-rule="evenodd"
           d="m 7.646,4.146 a 0.5,0.5 0 0 1 0.708,0 l 3,3 A 0.5006316,0.5006316 0 0 1 10.646,7.854 L 8.5,5.707 V 14.5 a 0.5,0.5 0 0 1 -1,0 V 5.707 L 5.354,7.854 A 0.5006316,0.5006316 0 1 1 4.646,7.146 Z"
           id="path59519"
           style="stroke-width:0.0703006;fill:#999999" /></g></g></g></svg>
