<?xml version="1.0" encoding="UTF-8"?>
<svg id="Layer_1" xmlns="http://www.w3.org/2000/svg" version="1.1" viewBox="0 0 1458.9 567.1">
  <!-- Generator: Adobe Illustrator 29.1.0, SVG Export Plug-In . SVG Version: 2.1.0 Build 142)  -->
  <defs>
    <style>
      .st0 {
        fill: #aa0fea;
      }

      .st1 {
        fill: #fff;
      }
    </style>
  </defs>
  <polygon class="st1" points="415.1 437 309.8 437 309.8 405.1 439.9 405.1 439.9 340.4 309.8 340.4 309.8 309.2 421.9 309.2 380 244.2 309.8 244.2 257.1 244.2 237.4 244.2 237.4 502.1 257.1 502.1 309.8 502.1 373.4 502.1 415.1 437"/>
  <path class="st1" d="M860.6,244.1h-105.1l-67.9,195.1,40,62.7h12.8l16.5-49.6h97.8l15.8,49.6h79.3l-89.3-257.9ZM777.9,389.2l5-15,21.2-67.4h5.4l20.4,67.4,4.8,15h-56.7Z"/>
  <g>
    <path class="st1" d="M1068.8,505.9c-27.7,0-51.1-5.4-70.2-16.4-19.1-10.9-33.6-26.3-43.3-46.2-9.8-19.9-14.6-43.3-14.6-70.2s4.9-50.4,14.6-70.2c9.7-19.9,24.2-35.3,43.3-46.2,19.1-10.9,42.5-16.4,70.2-16.4s49.8,4.4,67.7,13.1c18,8.7,31.4,20.8,40.2,36.2,8.9,15.4,13.3,33.1,13.3,53.1v8.9h-77.4v-1.2c0-14.9-3.1-25.2-9.2-31-6.2-5.8-18.2-8.7-36.2-8.7s-22,1.5-29.1,4.4c-7.1,3-12.1,8.9-15.2,17.7-3.1,8.9-4.6,22.3-4.6,40.2s1.5,31.1,4.6,40c3.1,9,8.1,15,15.2,17.9,7.1,3,16.7,4.4,29.1,4.4,18,0,30-2.9,36.2-8.7,6.2-5.8,9.2-16.1,9.2-31v-1.2h77.4v8.9c0,20-4.4,37.7-13.3,53.1-8.9,15.4-22.3,27.5-40.2,36.2-18,8.7-40.5,13.1-67.7,13.1"/>
    <polygon class="st1" points="1424.9 244.1 1424.9 309.2 1345.6 309.2 1345.6 502 1273.2 502 1273.2 309.2 1193.9 309.2 1193.9 244.1 1424.9 244.1"/>
    <path class="st0" d="M609,365.1v5.1l106.5,167h-84.3l-78.2-123.1h-5l-77.2,123.1h-83.3l107-167v-5.1l-107-166h84.3l78.7,122.1h5l126.3-200.4c-7.3-3.9-14.8-7.4-22.4-10.6-35.1-14.8-72.4-22.4-110.8-22.4s-75.7,7.5-110.8,22.4c-33.9,14.3-64.4,34.9-90.5,61-8.6,8.6-16.6,17.7-23.9,27.1l-64-.3c59.1-97.8,166.5-163.3,289.2-163.3s113.5,14.9,161.5,41.1c20.9,11.4,40.4,24.9,58.3,40.3l-11.4,17.8-148.1,231.1Z"/>
  </g>
</svg>