<?xml version="1.0" encoding="UTF-8" standalone="no"?>
<!-- Created with Inkscape (http://www.inkscape.org/) -->

<svg
   width="66.883751mm"
   height="14.302413mm"
   viewBox="0 0 66.883751 14.302413"
   version="1.1"
   id="svg30661"
   inkscape:version="1.2.1 (9c6d41e, 2022-07-14)"
   sodipodi:docname="exact.svg"
   xmlns:inkscape="http://www.inkscape.org/namespaces/inkscape"
   xmlns:sodipodi="http://sodipodi.sourceforge.net/DTD/sodipodi-0.dtd"
   xmlns="http://www.w3.org/2000/svg"
   xmlns:svg="http://www.w3.org/2000/svg">
  <sodipodi:namedview
     id="namedview30663"
     pagecolor="#ffffff"
     bordercolor="#999999"
     borderopacity="1"
     inkscape:showpageshadow="0"
     inkscape:pageopacity="0"
     inkscape:pagecheckerboard="0"
     inkscape:deskcolor="#d1d1d1"
     inkscape:document-units="mm"
     showgrid="false"
     inkscape:zoom="1.9392145"
     inkscape:cx="241.077"
     inkscape:cy="73.741199"
     inkscape:window-width="2560"
     inkscape:window-height="1440"
     inkscape:window-x="1440"
     inkscape:window-y="0"
     inkscape:window-maximized="0"
     inkscape:current-layer="g30499" />
  <defs
     id="defs30658" />
  <g
     inkscape:label="Ebene 1"
     inkscape:groupmode="layer"
     id="layer1"
     transform="translate(-38.369176,-110.85062)">
    <g
       id="g30499"
       transform="matrix(0.35277777,0,0,-0.35277777,105.78209,116.6197)">
      <path
         d="M -4.1475667,0 H -17.966 l 3.287,12.371 c 0.376,1.389 -0.444,2.831 -1.834,3.211 l -2.538,0.68 c -1.394,0.377 -2.808,-0.448 -3.187,-1.841 L -26.073,0 h -12.879 c -1.426,0.005 -2.938,-1.22 -3.322,-2.645 l -0.697,-2.593 c -0.382,-1.427 0.458,-2.591 1.884,-2.598 h 12.916 l -3.341,-12.382 c -0.375,-1.377 0.502,-2.838 1.879,-3.21 l 2.506,-0.672 c 1.377,-0.369 2.792,0.443 3.169,1.819 l 3.894,14.445 h 14.2229453 c 4.129664,-0.026328 4.341055,1.473668 4.341055,4.8359999 C -1.5115127,-1.3031928 -2.1097637,-0.07577582 -4.1475667,0 Z"
         style="fill:#005a9b;fill-opacity:1;fill-rule:nonzero;stroke:none"
         id="path31046"
         sodipodi:nodetypes="cccccccccccccccccccc" />
      <g
         aria-label="exac"
         transform="matrix(1,0,-0.35578732,-1,0,0)"
         id="text30863"
         style="font-size:63.4701px;line-height:1.25;fill:#ffffff;stroke-width:0.750001">
        <path
           d="m -168.1429,22.864799 q -6.94204,0 -10.87793,-4.152829 -3.93589,-4.18382 -3.93589,-11.2808188 V 1.6977681 q 0,-6.9730335 4.02886,-11.1878448 4.02886,-4.2148113 10.38207,-4.2148113 6.35321,0 10.38208,4.2148113 4.02886,4.2148113 4.02886,11.1878448 v 4.3387764 h -23.49138 v 1.7974931 q 0,4.4937324 2.4793,7.4069114 2.5103,2.913178 7.00403,2.913178 3.09913,0 5.17554,-1.23965 2.10741,-1.270642 2.69624,-3.037144 h 5.60942 q -0.24793,1.487581 -1.17767,2.975161 -0.92974,1.487581 -2.51029,2.882187 -1.58056,1.394607 -4.15283,2.262362 -2.54128,0.867756 -5.64041,0.867756 z m -9.48333,-20.9191008 h 18.12989 V 1.325873 q 0,-3.099126 -1.14668,-5.4544618 -1.11568,-2.3553357 -3.1921,-3.5949861 -2.04542,-1.2706417 -4.74166,-1.2706417 -4.05985,0 -6.57015,2.8202047 -2.4793,2.7892134 -2.4793,7.4998849 z"
           style="font-family:Galvji;-inkscape-font-specification:Galvji"
           id="path31058" />
        <path
           d="m -123.51549,22.275965 -8.70854,-13.4811983 h -0.18595 l -8.70854,13.4811983 h -6.07429 L -135.1682,4.7968941 -147.25479,-13.147045 h 6.3842 l 8.52259,13.41921516 h 0.18595 l 8.77053,-13.41921516 h 6.07429 l -12.0556,17.3551052 12.24154,18.0679048 z"
           style="font-family:Galvji;-inkscape-font-specification:Galvji"
           id="path31055" />
        <path
           d="m -98.722475,22.864799 q -2.510295,0 -4.679685,-0.805773 -2.16938,-0.805773 -3.65696,-2.20038 -1.48758,-1.394606 -2.35534,-3.409038 -0.86776,-2.045423 -0.86776,-4.493733 0,-3.0991258 1.39461,-5.3924791 1.39461,-2.2933532 4.21481,-3.5949861 2.8512,-1.3326242 6.787089,-1.3326242 h 9.483325 v -3.6259774 q 0,-3.5330036 -2.076414,-5.2375229 -2.045423,-1.7045193 -5.795366,-1.7045193 -6.136274,0 -7.499884,4.2458026 h -5.14455 q 0.43388,-4.4627415 3.81193,-6.7251036 3.40903,-2.293353 9.080434,-2.293353 5.733384,0 9.359361,2.851196 3.625977,2.8202045 3.625977,8.8015177 V 22.275965 h -5.17554 v -4.772654 h -0.185948 q -3.347056,5.361488 -10.320089,5.361488 z m 1.332624,-4.586707 q 3.811925,0 6.3842,-2.324344 2.603265,-2.324345 2.603265,-5.795366 V 6.0365445 h -9.35936 q -3.625974,0 -5.330494,1.6115455 -1.70452,1.6115456 -1.70452,4.245803 0,3.099126 2.16939,4.741662 2.16938,1.642537 5.237519,1.642537 z"
           style="font-family:Galvji;-inkscape-font-specification:Galvji"
           id="path31052" />
        <path
           d="M -72.596844,7.64809 V 1.449838 q 0,-6.9110509 3.873907,-11.0328885 3.904899,-4.1218375 10.630003,-4.1218375 6.136269,0 9.638281,3.161108 3.502013,3.161109 3.656969,7.220964 h -5.299505 q -0.185948,-0.8987465 -0.619826,-1.7355105 -0.402886,-0.8677553 -1.23965,-1.8284844 -0.836764,-0.960729 -2.417318,-1.5185717 -1.580555,-0.588834 -3.656969,-0.588834 -4.524724,0 -6.911051,2.8821872 -2.386327,2.8511959 -2.386327,7.747815 v 6.074287 q 0,3.0991264 1.084694,5.4234704 1.115686,2.293353 3.223091,3.533004 2.138397,1.208659 4.989593,1.208659 6.911051,0 8.181693,-4.958602 h 5.299505 q -0.185947,3.997873 -3.656969,6.973034 -3.440029,2.975161 -9.886211,2.975161 -6.725104,0 -10.630003,-4.121838 -3.873907,-4.152829 -3.873907,-11.094871 z"
           style="font-family:Galvji;-inkscape-font-specification:Galvji"
           id="path31049" />
      </g>
    </g>
  </g>
</svg>
