<?xml version="1.0" encoding="UTF-8" standalone="no"?>
<svg
   xmlns:dc="http://purl.org/dc/elements/1.1/"
   xmlns:cc="http://creativecommons.org/ns#"
   xmlns:rdf="http://www.w3.org/1999/02/22-rdf-syntax-ns#"
   xmlns:svg="http://www.w3.org/2000/svg"
   xmlns="http://www.w3.org/2000/svg"
   xmlns:sodipodi="http://sodipodi.sourceforge.net/DTD/sodipodi-0.dtd"
   xmlns:inkscape="http://www.inkscape.org/namespaces/inkscape"
   width="2em"
   height="2em"
   viewBox="0 0 16 16"
   class="bi bi-basket-fill"
   fill="currentColor"
   version="1.1"
   id="svg4"
   sodipodi:docname="basket.svg"
   inkscape:version="0.92.4 (5da689c313, 2019-01-14)">
  <metadata
     id="metadata10">
    <rdf:RDF>
      <cc:Work
         rdf:about="">
        <dc:format>image/svg+xml</dc:format>
        <dc:type
           rdf:resource="http://purl.org/dc/dcmitype/StillImage" />
      </cc:Work>
    </rdf:RDF>
  </metadata>
  <defs
     id="defs8" />
  <sodipodi:namedview
     pagecolor="#ffffff"
     bordercolor="#666666"
     borderopacity="1"
     objecttolerance="10"
     gridtolerance="10"
     guidetolerance="10"
     inkscape:pageopacity="0"
     inkscape:pageshadow="2"
     inkscape:window-width="1920"
     inkscape:window-height="1017"
     id="namedview6"
     showgrid="false"
     inkscape:zoom="14.75"
     inkscape:cx="8"
     inkscape:cy="8"
     inkscape:window-x="1912"
     inkscape:window-y="-8"
     inkscape:window-maximized="1"
     inkscape:current-layer="svg4" />
  <rect style="opacity:0.5;fill:#ffffff;fill-opacity:1;stroke:none;stroke-width:3.77952766;stroke-miterlimit:4;stroke-dasharray:none;stroke-dashoffset:0;stroke-opacity:1" width="100%" height="100%" x="0" y="0" />
  <path
     fill-rule="evenodd"
     d="M5.071 1.243a.5.5 0 0 1 .858.514L3.383 6h9.234L10.07 1.757a.5.5 0 1 1 .858-.514L13.783 6H15.5a.5.5 0 0 1 .5.5v2a.5.5 0 0 1-.5.5H15v5a2 2 0 0 1-2 2H3a2 2 0 0 1-2-2V9H.5a.5.5 0 0 1-.5-.5v-2A.5.5 0 0 1 .5 6h1.717L5.07 1.243zM3.5 10.5a.5.5 0 0 0-1 0v3a.5.5 0 0 0 1 0v-3zm2.5 0a.5.5 0 0 0-1 0v3a.5.5 0 0 0 1 0v-3zm2.5 0a.5.5 0 0 0-1 0v3a.5.5 0 0 0 1 0v-3zm2.5 0a.5.5 0 0 0-1 0v3a.5.5 0 0 0 1 0v-3zm2.5 0a.5.5 0 0 0-1 0v3a.5.5 0 0 0 1 0v-3z"
     id="path2" />
</svg>
