<?xml version="1.0" standalone="no"?>
<!DOCTYPE svg PUBLIC "-//W3C//DTD SVG 20010904//EN"
 "http://www.w3.org/TR/2001/REC-SVG-20010904/DTD/svg10.dtd">
<svg version="1.0" xmlns="http://www.w3.org/2000/svg"
width="2em" height="2em" viewBox="0 0 282.000000 220.000000"
 preserveAspectRatio="xMidYMid meet">

<g transform="translate(0.000000,219.000000) scale(0.100000,-0.100000)"
fill="#000000" stroke="none">
<path d="M287 2179 c-106 -25 -201 -104 -251 -209 l-31 -65 0 -810 0 -810 31
-65 c39 -83 101 -145 184 -184 l65 -31 1130 0 1130 0 65 31 c36 17 85 51 109
75 24 24 58 73 75 109 l31 65 0 810 0 810 -31 65 c-39 83 -101 145 -184 184
l-65 31 -1110 2 c-625 1 -1126 -3 -1148 -8z m2262 -24 c73 -19 156 -78 197
-140 67 -100 65 -70 62 -942 l-3 -788 -27 -57 c-34 -73 -103 -142 -176 -176
l-57 -27 -1108 -3 c-1226 -3 -1160 -6 -1262 62 -62 41 -121 124 -140 197 -23
84 -22 1551 1 1630 32 113 120 204 233 240 52 17 124 18 1141 18 915 1 1093
-1 1139 -14z"/>
<path d="M2280 1845 c-61 -38 -75 -42 -84 -20 -4 11 -27 2 -103 -44 -81 -48
-100 -55 -109 -44 -8 12 -136 -60 -703 -396 -616 -366 -695 -410 -706 -395 -6
9 -16 15 -22 13 -33 -13 -313 -185 -313 -192 0 -7 313 -544 334 -574 5 -6 326
190 326 199 0 5 -4 17 -9 26 -8 14 95 78 684 427 563 333 691 413 685 426 -7
12 12 28 90 74 65 39 96 63 90 69 -17 17 -12 24 49 60 68 42 84 58 83 89 0 21
-137 263 -169 300 -24 26 -62 20 -123 -18z m154 -151 c42 -69 74 -129 71 -134
-8 -14 -96 -62 -102 -56 -3 3 -38 61 -78 128 l-73 123 52 32 c28 18 52 33 53
33 1 0 36 -57 77 -126z m-170 -105 c53 -89 96 -163 96 -164 0 -2 -32 -21 -70
-44 l-70 -40 -14 22 c-93 147 -176 301 -168 309 13 13 115 76 124 77 4 1 50
-72 102 -160z m-196 -120 c63 -105 112 -192 110 -194 -13 -11 -1293 -765
-1298 -765 -13 0 -235 383 -225 387 6 3 296 175 645 383 349 208 640 379 645
379 6 1 61 -85 123 -190z"/>
</g>
</svg>
