<svg width="2em" height="2em" viewBox="0 0 16 16" class="bi bi-map" fill="currentColor" xmlns="http://www.w3.org/2000/svg">
    <rect style="opacity:0.5;fill:#ffffff;fill-opacity:1;stroke:none;stroke-width:3.77952766;stroke-miterlimit:4;stroke-dasharray:none;stroke-dashoffset:0;stroke-opacity:1" width="100%" height="100%" x="0" y="0" />
  <path fill-rule="evenodd" d="M15.817.613A.5.5 0 0 1 16 1v13a.5.5 0 0 1-.402.49l-5 1a.502.502 0 0 1-.196 0L5.5 14.51l-4.902.98A.5.5 0 0 1 0 15V2a.5.5 0 0 1 .402-.49l5-1a.5.5 0 0 1 .196 0l4.902.98 4.902-.98a.5.5 0 0 1 .415.103zM10 2.41l-4-.8v11.98l4 .8V2.41zm1 11.98l4-.8V1.61l-4 .8v11.98zm-6-.8V1.61l-4 .8v11.98l4-.8z"/>
</svg>