<?xml version="1.0" standalone="no"?>
<!DOCTYPE svg PUBLIC "-//W3C//DTD SVG 20010904//EN"
 "http://www.w3.org/TR/2001/REC-SVG-20010904/DTD/svg10.dtd">
<svg version="1.0" xmlns="http://www.w3.org/2000/svg"
width="2em" height="2em" viewBox="0 0 282.000000 220.000000"
 preserveAspectRatio="xMidYMid meet">

<g transform="translate(0.000000,220.000000) scale(0.100000,-0.100000)"
fill="#000000" stroke="none">
<path d="M280 2186 c-142 -40 -239 -143 -269 -286 -9 -40 -11 -261 -9 -835 l3
-780 31 -65 c39 -83 101 -145 184 -184 l65 -31 1125 0 1125 0 65 31 c83 39
145 101 184 184 l31 65 0 815 0 815 -31 65 c-39 83 -101 145 -184 184 l-65 31
-1105 2 c-864 1 -1115 -1 -1150 -11z m2261 -22 c113 -32 210 -128 244 -239 22
-75 22 -1575 0 -1650 -33 -109 -131 -207 -240 -240 -75 -22 -2195 -22 -2270 0
-71 22 -148 78 -189 138 -68 101 -66 76 -66 927 0 851 -2 823 67 927 19 30 57
67 86 86 104 69 37 66 1233 66 953 1 1087 -1 1135 -15z"/>
<path d="M417 2070 c-255 -44 -357 -351 -179 -538 52 -56 111 -87 500 -267
128 -60 229 -112 224 -117 -4 -4 -114 -57 -243 -117 -447 -207 -475 -225 -531
-339 -64 -130 -35 -278 72 -375 51 -46 151 -87 213 -87 90 0 211 53 267 116
120 137 119 326 -2 447 -27 27 -48 50 -46 52 12 10 463 215 474 215 7 0 197
-86 421 -191 l408 -191 325 -69 c178 -37 326 -67 327 -65 2 2 -285 137 -637
302 -353 164 -643 301 -645 304 -2 4 288 143 646 310 357 167 648 304 647 306
-2 1 -145 -27 -318 -63 l-315 -65 -429 -199 -430 -200 -243 113 -242 113 27
25 c75 69 113 150 114 242 1 209 -196 373 -405 338z m146 -133 c155 -66 187
-277 55 -364 -37 -25 -51 -28 -122 -28 -71 0 -86 3 -123 28 -64 41 -96 96
-101 171 -5 82 20 135 85 177 39 24 57 29 110 29 35 0 78 -6 96 -13z m25
-1182 c161 -68 162 -292 2 -375 -51 -26 -119 -34 -171 -20 -80 22 -149 114
-149 200 0 34 42 120 72 147 64 60 169 80 246 48z"/>
</g>
</svg>
