<svg xmlns="http://www.w3.org/2000/svg" viewBox="0 0 40 40">
  <rect width="40" height="40" rx="6" fill="#005a9b"/>
  <path d="M 29.5,20 H 21.5 l 1.9,7.1 c 0.22,0.8 -0.26,1.62 -1.05,1.84 l -1.46,0.39 c -0.8,0.22 -1.61,-0.26 -1.83,-1.06 L 17.0,20 H 9.6 c -0.82,0 -1.69,-0.7 -1.9,-1.52 l -0.4,-1.49 c -0.22,-0.82 0.26,-1.49 1.08,-1.49 H 16.0 l -1.92,-7.1 c -0.22,-0.79 0.29,-1.63 1.08,-1.84 l 1.44,-0.39 c 0.79,-0.21 1.6,0.25 1.82,1.04 l 2.24,8.29 H 28.8 c 2.37,-0.02 2.5,0.85 2.5,2.78 C 31.3,21.25 30.95,21.96 29.5,20 Z" fill="white"/>
</svg>
